<svg width="25" height="25" viewBox="0 0 25 25" fill="none" xmlns="http://www.w3.org/2000/svg">
<path d="M23 13.25C23.6904 13.25 24.25 12.6904 24.25 12C24.25 11.3096 23.6904 10.75 23 10.75L23 13.25ZM2.11612 11.1161C1.62796 11.6043 1.62796 12.3957 2.11612 12.8839L10.0711 20.8388C10.5592 21.327 11.3507 21.327 11.8388 20.8388C12.327 20.3507 12.327 19.5592 11.8388 19.0711L4.76777 12L11.8388 4.92893C12.327 4.44078 12.327 3.64932 11.8388 3.16116C11.3507 2.67301 10.5592 2.67301 10.0711 3.16116L2.11612 11.1161ZM23 10.75L3 10.75L3 13.25L23 13.25L23 10.75Z" fill="black"/>
</svg>
